<?xml version="1.0" encoding="UTF-8" standalone="no"?>
<!DOCTYPE svg PUBLIC "-//W3C//DTD SVG 1.1//EN" "http://www.w3.org/Graphics/SVG/1.1/DTD/svg11.dtd">
<svg xmlns="http://www.w3.org/2000/svg" version="1.1" viewBox="0.00 0.00 969.00 363.00">
<path fill="#000000" d="
  M 0.00 357.95
  L 0.00 356.60
  Q 1.11 355.33 3.79 351.04
  Q 27.51 313.13 34.29 302.04
  Q 36.76 298.00 37.52 296.80
  Q 51.34 274.92 51.80 274.23
  Q 53.83 271.19 55.46 267.89
  A 3.41 3.24 77.2 0 1 55.71 267.47
  Q 58.46 263.73 60.39 260.07
  A 5.27 5.17 -12.5 0 1 60.93 259.24
  Q 63.28 256.17 65.10 252.81
  Q 65.11 252.79 68.10 247.89
  Q 73.24 239.48 84.16 222.47
  Q 85.38 220.56 87.38 217.19
  C 89.11 214.26 90.77 212.32 91.98 209.84
  A 8.19 7.76 78.1 0 1 92.81 208.49
  Q 95.46 205.00 97.30 201.25
  A 5.32 4.82 79.0 0 1 97.82 200.39
  C 100.06 197.42 101.81 194.04 103.86 190.98
  Q 107.50 185.54 108.99 182.94
  Q 109.00 182.91 112.90 176.68
  Q 128.07 152.38 135.19 141.20
  Q 136.01 139.91 136.40 139.36
  Q 138.76 135.95 140.91 132.35
  Q 144.43 126.45 145.23 125.21
  Q 150.52 117.06 152.77 113.29
  Q 156.37 107.25 158.71 104.09
  C 159.65 102.82 160.10 100.67 161.36 99.77
  A 0.59 0.53 -4.9 0 0 161.52 99.60
  L 184.45 62.91
  A 2.57 0.31 -46.2 0 1 185.05 62.11
  Q 185.40 61.69 185.90 60.89
  Q 196.79 43.38 210.85 21.36
  Q 215.45 14.15 219.98 6.44
  A 0.89 0.86 14.7 0 1 220.74 6.01
  L 334.16 6.01
  A 0.67 0.67 0.0 0 1 334.83 6.74
  Q 334.67 8.75 333.56 10.53
  A 1.33 1.23 -24.3 0 0 333.37 10.98
  L 331.15 20.00
  A 0.96 0.86 51.5 0 0 331.13 20.33
  Q 331.27 21.24 330.36 24.57
  Q 329.11 29.13 324.84 47.98
  Q 316.59 84.47 312.07 103.91
  Q 311.51 106.31 309.11 116.70
  Q 305.14 133.90 301.42 150.44
  Q 298.22 164.71 295.64 175.19
  Q 294.98 177.86 294.91 179.11
  C 294.82 180.79 294.05 182.28 293.59 184.29
  Q 287.98 208.83 284.02 226.24
  Q 282.40 233.38 281.88 235.98
  Q 281.67 237.03 280.10 243.26
  C 278.64 249.03 277.72 254.09 276.16 260.11
  C 276.00 260.74 276.17 261.46 276.00 262.00
  Q 275.22 264.42 273.24 272.94
  A 1.63 1.59 -47.2 0 0 273.26 273.73
  Q 273.63 274.93 273.03 275.99
  C 272.05 277.74 271.87 279.41 271.60 281.26
  A 0.87 0.87 0.0 0 1 270.74 282.00
  L 187.18 282.00
  A 0.66 0.66 0.0 0 1 186.55 281.15
  Q 197.40 245.88 201.60 232.61
  C 202.99 228.25 199.11 227.08 195.46 227.02
  Q 183.94 226.82 168.33 227.03
  C 165.50 227.07 164.20 226.96 162.79 229.06
  Q 161.69 230.72 160.60 232.56
  Q 157.98 236.95 148.97 252.95
  Q 123.17 298.74 91.87 357.58
  A 0.75 0.74 -76.1 0 1 91.21 357.98
  L 0.00 357.95
  Z
  M 190.17 176.16
  C 189.73 176.97 190.21 177.82 189.88 178.82
  A 1.50 1.36 -80.7 0 0 191.15 180.78
  Q 200.16 180.59 216.59 180.63
  A 3.56 3.55 -80.4 0 0 219.96 178.23
  Q 220.81 175.78 220.84 175.70
  Q 222.18 171.68 231.85 138.67
  Q 234.60 129.28 237.22 120.62
  Q 240.96 108.26 241.14 107.65
  Q 245.22 93.45 251.53 75.79
  A 3.91 3.61 -36.4 0 0 251.75 74.65
  L 251.99 69.31
  A 1.09 1.08 -68.5 0 0 251.62 68.45
  Q 250.66 67.62 249.42 68.24
  A 1.50 1.47 -89.0 0 0 248.79 68.86
  Q 220.00 121.86 190.17 176.16
  Z"
/>
<path fill="#000000" d="
  M 542.79 49.81
  Q 542.63 49.60 542.59 49.57
  A 2.04 1.97 61.5 0 0 541.45 49.21
  L 344.83 48.79
  A 0.91 0.91 0.0 0 1 343.94 47.71
  Q 345.06 41.79 346.98 34.96
  Q 351.35 19.41 354.41 9.54
  C 354.77 8.37 354.76 6.85 355.20 6.23
  A 0.57 0.55 -71.3 0 1 355.65 6.00
  L 964.35 6.00
  A 0.51 0.51 0.0 0 1 964.85 6.60
  L 957.17 48.10
  A 1.10 1.09 5.0 0 1 956.09 49.00
  L 621.96 49.00
  A 0.80 0.79 3.7 0 0 621.17 49.69
  Q 620.98 51.18 620.45 52.73
  Q 619.15 56.51 613.15 70.92
  Q 560.50 197.34 526.63 277.65
  Q 526.08 278.96 525.15 280.96
  A 1.85 1.83 12.3 0 1 523.48 282.02
  L 456.39 282.02
  A 0.62 0.62 0.0 0 1 455.82 281.16
  L 550.88 53.42
  A 1.46 1.45 21.6 0 0 550.04 51.49
  Q 548.91 51.06 544.47 50.76
  Q 543.50 50.70 542.79 49.81
  Z"
/>
<path fill="#000000" d="
  M 385.61 197.77
  C 381.00 195.88 377.69 202.37 376.09 205.80
  C 372.66 213.16 371.69 216.08 368.37 225.18
  Q 366.35 230.69 363.78 236.64
  Q 355.99 254.65 344.27 281.12
  A 1.51 1.48 11.7 0 1 342.90 282.00
  L 278.19 282.00
  A 0.74 0.74 0.0 0 1 277.50 280.98
  Q 287.45 256.52 294.53 239.27
  Q 298.63 229.29 311.26 199.82
  Q 334.29 146.12 368.73 66.60
  A 0.97 0.97 0.0 0 1 369.62 66.01
  L 468.35 65.96
  A 1.49 1.20 -32.8 0 1 468.64 65.99
  Q 471.41 66.66 477.37 67.08
  Q 479.25 67.22 488.28 69.65
  C 490.85 70.35 492.99 71.99 495.35 72.62
  A 1.76 1.50 -15.9 0 1 495.79 72.82
  L 501.68 76.70
  A 2.61 2.43 -2.0 0 1 502.13 77.09
  Q 506.73 82.11 508.84 88.81
  A 3.47 3.10 -57.7 0 1 509.00 89.77
  Q 509.11 93.85 509.03 98.13
  Q 509.02 99.04 509.33 100.37
  Q 509.64 101.68 508.89 103.35
  C 508.06 105.19 507.86 107.94 507.00 110.26
  Q 501.96 123.87 497.54 134.75
  Q 493.12 145.63 486.67 155.41
  Q 484.60 158.57 482.11 160.91
  C 479.34 163.52 477.92 165.33 475.00 167.35
  Q 471.41 169.84 466.42 172.06
  C 462.81 173.66 459.19 174.04 455.74 175.45
  C 453.77 176.26 453.39 178.14 454.62 179.69
  Q 455.13 180.33 456.97 181.25
  Q 462.04 183.79 465.65 187.61
  A 2.74 2.64 13.5 0 1 466.20 188.47
  C 467.10 190.68 469.12 193.94 467.87 197.19
  A 3.45 3.43 60.8 0 0 467.68 197.87
  Q 466.26 206.15 464.10 211.87
  Q 460.79 220.61 456.22 230.33
  Q 451.18 241.07 447.97 248.65
  Q 440.16 267.11 434.40 281.54
  A 0.75 0.74 11.2 0 1 433.71 282.00
  L 368.20 282.00
  A 0.73 0.73 0.0 0 1 367.53 280.99
  Q 370.06 275.05 397.73 207.50
  Q 398.11 206.56 397.85 203.28
  A 2.44 2.44 0.0 0 0 397.13 201.73
  C 394.94 199.56 391.50 197.86 388.14 198.15
  Q 386.81 198.27 385.61 197.77
  Z
  M 417.13 157.22
  Q 418.88 156.54 420.43 154.45
  Q 424.54 148.91 428.00 141.53
  Q 434.89 126.84 439.95 112.22
  Q 441.35 108.21 440.89 104.75
  C 440.25 99.77 429.57 100.53 424.57 100.61
  A 2.27 2.21 -55.2 0 0 423.85 100.75
  Q 422.09 101.39 421.01 103.48
  Q 411.06 122.61 402.35 143.06
  C 400.34 147.78 398.50 151.85 398.35 155.59
  A 2.10 2.09 -86.2 0 0 400.24 157.75
  Q 407.00 158.42 413.72 157.88
  Q 415.89 157.71 417.13 157.22
  Z"
/>
<path fill="#000000" d="
  M 686.40 67.38
  Q 702.76 67.37 708.72 67.39
  C 710.21 67.39 710.70 67.67 711.79 67.84
  A 13.99 11.02 6.0 0 0 713.76 68.03
  Q 716.02 68.11 726.31 67.90
  Q 730.65 67.81 735.13 68.66
  C 743.13 70.17 749.26 71.39 755.43 73.77
  Q 758.91 75.10 762.43 77.30
  Q 768.93 81.37 772.02 88.13
  Q 773.62 91.62 773.93 94.11
  C 774.18 96.14 775.42 99.51 775.38 102.37
  Q 775.28 109.51 771.80 116.56
  C 769.18 121.86 767.82 125.13 766.09 130.84
  Q 763.55 139.23 760.64 144.16
  Q 757.73 149.10 755.13 152.88
  Q 753.62 155.08 749.62 158.11
  Q 739.58 165.72 727.06 169.93
  C 725.19 170.55 723.25 170.81 721.10 171.09
  A 1.01 1.00 7.3 0 0 720.28 171.72
  C 718.98 174.93 722.59 176.00 725.11 177.16
  C 729.00 178.94 731.39 182.32 732.83 186.40
  Q 734.01 189.74 735.10 191.75
  A 0.95 0.86 -62.0 0 1 735.21 192.19
  L 735.30 198.04
  A 1.16 1.11 59.0 0 1 735.19 198.53
  C 733.86 201.52 733.33 206.73 731.92 210.60
  Q 729.72 216.67 728.96 218.46
  Q 723.60 231.06 720.81 238.87
  Q 718.45 245.46 716.04 248.87
  Q 712.41 254.00 708.98 257.48
  Q 702.89 263.64 698.98 266.71
  Q 698.80 266.86 695.05 269.51
  Q 688.85 273.89 683.81 276.33
  Q 682.70 276.87 678.63 278.25
  Q 675.96 279.15 673.27 279.57
  Q 671.95 279.78 664.60 281.21
  Q 660.38 282.03 655.84 282.02
  Q 646.60 282.01 545.55 281.99
  A 0.66 0.66 0.0 0 1 545.02 280.94
  Q 545.89 279.75 546.55 277.78
  Q 546.91 276.68 552.24 264.14
  Q 553.12 262.05 553.81 260.02
  C 554.54 257.89 555.67 256.29 556.80 253.51
  Q 561.86 241.13 566.19 231.25
  Q 573.45 214.66 578.41 202.21
  Q 579.58 199.30 580.33 197.86
  C 581.52 195.61 581.78 193.35 583.28 191.13
  A 3.40 3.29 -17.5 0 0 583.54 190.65
  Q 599.57 152.41 603.95 142.18
  Q 605.32 138.98 605.66 137.56
  C 606.21 135.21 607.73 133.75 608.51 131.31
  Q 609.37 128.62 614.64 116.93
  Q 616.62 112.52 618.47 108.11
  C 619.83 104.83 621.53 102.09 622.50 99.07
  Q 622.83 98.04 624.06 95.43
  Q 630.35 82.07 635.47 69.45
  A 1.61 0.21 -86.3 0 0 635.66 68.49
  Q 635.86 66.84 638.26 66.88
  Q 650.34 67.05 685.93 66.99
  A 0.38 0.38 0.0 0 1 686.10 67.03
  Q 686.31 67.14 686.37 67.35
  A 0.04 0.03 76.7 0 0 686.40 67.38
  Z
  M 679.54 149.33
  Q 682.53 148.35 684.71 148.77
  A 1.69 1.61 -46.4 0 0 685.51 148.73
  C 690.58 147.16 692.63 144.63 694.70 140.97
  Q 702.60 127.02 708.17 111.40
  Q 710.24 105.59 705.64 102.63
  A 3.60 3.42 65.7 0 0 704.44 102.14
  Q 697.55 100.74 690.66 102.02
  A 2.71 2.70 -80.8 0 0 688.76 103.40
  Q 678.77 121.74 671.15 142.39
  Q 670.76 143.43 670.64 144.29
  Q 670.48 145.35 670.39 146.16
  A 2.59 2.58 -85.3 0 0 672.79 149.00
  L 678.96 149.41
  A 1.46 1.42 36.3 0 0 679.54 149.33
  Z
  M 629.60 250.03
  C 633.82 251.91 649.37 250.99 652.02 244.52
  Q 659.29 226.76 667.05 208.68
  Q 667.13 208.49 669.66 202.13
  Q 671.07 198.57 672.26 195.59
  C 673.27 193.06 673.39 188.67 670.12 187.71
  Q 662.57 185.50 654.80 187.14
  A 2.04 2.03 5.9 0 0 653.39 188.28
  Q 651.47 192.47 636.95 225.17
  Q 635.85 227.66 635.29 228.69
  C 633.69 231.68 633.12 234.24 631.41 237.59
  C 630.18 240.00 629.33 243.24 627.71 245.71
  Q 626.77 247.13 627.16 247.90
  Q 627.85 249.26 629.60 250.03
  Z"
/>
<path fill="#000000" d="
  M 799.42 357.48
  Q 805.32 338.27 814.39 308.43
  C 815.27 305.52 815.21 304.06 812.46 302.72
  A 1.07 1.06 46.7 0 0 811.57 302.69
  C 810.51 303.14 809.11 302.62 807.82 302.62
  Q 780.90 302.62 780.74 302.62
  A 3.73 3.72 -72.5 0 0 777.85 304.13
  Q 773.63 309.85 769.09 317.81
  Q 760.75 332.47 754.36 344.86
  Q 753.94 345.67 747.10 357.25
  A 1.55 1.54 -74.4 0 1 745.78 358.00
  L 164.46 358.00
  A 0.27 0.27 0.0 0 1 164.20 357.65
  L 180.91 304.07
  A 1.50 1.48 8.4 0 1 182.34 303.02
  Q 638.61 303.00 687.50 303.01
  Q 693.26 303.01 693.47 302.87
  A 5.87 5.49 13.3 0 1 694.43 302.32
  Q 694.90 302.11 695.57 300.67
  Q 695.82 300.12 696.62 299.00
  Q 706.95 284.57 709.90 279.90
  Q 719.23 265.15 719.55 264.64
  Q 734.86 240.31 765.32 189.58
  Q 773.19 176.47 785.85 157.46
  Q 788.51 153.47 791.35 148.82
  Q 793.47 145.35 796.74 140.10
  Q 798.61 137.09 819.42 103.45
  Q 827.83 89.86 836.10 76.25
  C 838.33 72.59 838.35 70.89 842.75 70.90
  Q 901.58 71.08 949.32 70.87
  A 0.37 0.36 6.3 0 1 949.68 71.31
  Q 948.02 78.51 947.02 83.32
  Q 946.91 83.87 944.14 95.56
  Q 936.82 126.52 927.49 169.06
  Q 927.47 169.16 926.01 174.43
  Q 925.27 177.09 924.66 179.82
  Q 885.78 352.06 885.04 355.60
  Q 884.83 356.61 884.87 357.21
  A 0.74 0.74 0.0 0 1 884.13 358.00
  L 799.80 358.00
  A 0.40 0.40 0.0 0 1 799.42 357.48
  Z
  M 864.41 146.58
  A 0.26 0.25 -77.0 0 0 864.27 146.35
  C 862.55 145.37 861.34 146.46 860.45 148.11
  Q 856.33 155.77 802.55 253.68
  C 801.28 256.01 803.85 258.11 806.00 258.09
  Q 816.75 257.98 827.20 258.16
  Q 829.34 258.19 830.68 257.43
  Q 832.41 256.46 832.96 254.73
  Q 840.78 230.43 863.64 153.35
  Q 864.36 150.92 864.41 146.58
  Z"
/>
</svg>
