<?xml version="1.0" encoding="UTF-8" standalone="no"?>
<!DOCTYPE svg PUBLIC "-//W3C//DTD SVG 1.1//EN" "http://www.w3.org/Graphics/SVG/1.1/DTD/svg11.dtd">
<svg xmlns="http://www.w3.org/2000/svg" version="1.1" viewBox="0.00 0.00 1200.00 342.00">
<path fill="#000000" d="
  M 198.61 171.24
  Q 204.39 172.90 208.49 175.52
  C 224.52 185.77 215.60 206.03 210.44 219.19
  C 199.13 248.03 176.44 262.89 145.75 263.03
  Q 128.03 263.11 60.49 263.06
  A 0.31 0.31 0.0 0 1 60.20 262.64
  L 125.53 82.31
  A 0.76 0.75 -80.1 0 1 126.24 81.81
  Q 182.57 81.80 210.98 81.82
  C 233.11 81.83 252.05 90.87 246.48 117.01
  Q 244.88 124.49 241.19 133.81
  C 233.55 153.12 219.39 166.11 198.62 170.87
  A 0.19 0.19 0.0 0 0 198.61 171.24
  Z
  M 157.86 157.57
  C 167.10 157.83 175.66 158.47 179.24 149.99
  Q 180.94 145.96 184.81 134.91
  C 186.25 130.82 187.14 125.48 181.36 124.65
  Q 177.42 124.09 169.78 124.37
  A 0.89 0.88 8.7 0 0 168.97 124.95
  L 157.33 156.80
  A 0.57 0.57 0.0 0 0 157.86 157.57
  Z
  M 134.99 220.83
  C 144.27 221.07 152.87 221.69 156.45 213.16
  Q 158.15 209.11 162.01 198.00
  C 163.44 193.89 164.32 188.53 158.52 187.71
  Q 154.56 187.15 146.88 187.45
  A 0.89 0.88 8.6 0 0 146.07 188.04
  L 134.46 220.06
  A 0.58 0.58 0.0 0 0 134.99 220.83
  Z"
/>
<path fill="#000000" d="
  M 370.40 82.15
  L 348.01 262.81
  A 0.30 0.30 0.0 0 1 347.71 263.07
  L 289.41 263.07
  A 0.30 0.30 0.0 0 1 289.12 262.71
  L 294.04 236.43
  A 0.30 0.30 0.0 0 0 293.75 236.07
  L 265.38 236.07
  A 0.30 0.30 0.0 0 0 265.12 236.21
  L 249.00 262.93
  A 0.30 0.30 0.0 0 1 248.74 263.07
  L 196.95 263.07
  A 0.30 0.30 0.0 0 1 196.69 262.61
  L 305.78 81.95
  A 0.30 0.30 0.0 0 1 306.04 81.81
  L 370.10 81.81
  A 0.30 0.30 0.0 0 1 370.40 82.15
  Z
  M 311.42 152.55
  L 285.48 200.10
  A 0.42 0.41 -75.5 0 0 285.84 200.72
  L 300.23 200.72
  A 0.78 0.78 0.0 0 0 300.99 200.12
  L 311.76 152.68
  A 0.18 0.18 0.0 0 0 311.42 152.55
  Z"
/>
<path fill="#000000" d="
  M 759.82 127.81
  L 705.21 127.81
  A 0.32 0.32 0.0 0 0 704.91 128.02
  L 697.23 149.23
  A 0.32 0.32 0.0 0 0 697.53 149.66
  L 751.60 149.66
  A 0.32 0.32 0.0 0 1 751.90 150.09
  L 737.09 190.98
  A 0.32 0.32 0.0 0 1 736.79 191.19
  L 682.13 191.19
  A 0.32 0.32 0.0 0 0 681.83 191.40
  L 673.74 213.76
  A 0.32 0.32 0.0 0 0 674.04 214.19
  L 728.23 214.19
  A 0.32 0.32 0.0 0 1 728.53 214.62
  L 711.05 262.86
  A 0.32 0.32 0.0 0 1 710.75 263.07
  L 597.22 263.07
  A 0.32 0.32 0.0 0 1 596.92 262.64
  L 644.60 131.03
  A 0.32 0.32 0.0 0 0 644.30 130.60
  L 601.20 130.60
  A 0.32 0.32 0.0 0 0 600.90 130.81
  L 553.06 262.86
  A 0.32 0.32 0.0 0 1 552.76 263.07
  L 494.51 263.07
  A 0.32 0.32 0.0 0 1 494.21 262.64
  L 541.88 131.03
  A 0.32 0.32 0.0 0 0 541.58 130.60
  L 474.91 130.60
  A 0.32 0.32 0.0 0 0 474.61 130.81
  L 426.78 262.86
  A 0.32 0.32 0.0 0 1 426.48 263.07
  L 367.94 263.07
  A 0.32 0.32 0.0 0 1 367.64 262.64
  L 415.31 131.03
  A 0.32 0.32 0.0 0 0 415.01 130.60
  L 376.65 130.60
  A 0.32 0.32 0.0 0 1 376.35 130.17
  L 393.78 82.02
  A 0.32 0.32 0.0 0 1 394.08 81.81
  L 776.24 81.81
  A 0.32 0.32 0.0 0 1 776.54 82.24
  L 760.12 127.60
  A 0.32 0.32 0.0 0 1 759.82 127.81
  Z"
/>
<path fill="#000000" d="
  M 800.45 214.19
  L 852.81 214.19
  A 0.34 0.34 0.0 0 1 853.12 214.65
  L 835.66 262.85
  A 0.34 0.34 0.0 0 1 835.34 263.07
  L 723.94 263.07
  A 0.34 0.34 0.0 0 1 723.63 262.61
  L 789.06 82.03
  A 0.34 0.34 0.0 0 1 789.38 81.81
  L 847.44 81.81
  A 0.34 0.34 0.0 0 1 847.75 82.27
  L 800.14 213.73
  A 0.34 0.34 0.0 0 0 800.45 214.19
  Z"
/>
<path fill="#000000" d="
  M 1120.16 127.81
  L 1064.98 127.81
  A 0.32 0.32 0.0 0 0 1064.68 128.02
  L 1057.01 149.23
  A 0.32 0.32 0.0 0 0 1057.31 149.66
  L 1111.37 149.66
  A 0.32 0.32 0.0 0 1 1111.67 150.09
  L 1096.87 190.98
  A 0.32 0.32 0.0 0 1 1096.57 191.19
  L 1041.91 191.19
  A 0.32 0.32 0.0 0 0 1041.61 191.40
  L 1033.51 213.76
  A 0.32 0.32 0.0 0 0 1033.81 214.19
  L 1087.72 214.19
  A 0.32 0.32 0.0 0 1 1088.02 214.62
  L 1070.55 262.86
  A 0.32 0.32 0.0 0 1 1070.25 263.07
  L 845.72 263.07
  A 0.32 0.32 0.0 0 1 845.42 262.64
  L 910.85 82.02
  A 0.32 0.32 0.0 0 1 911.15 81.81
  L 970.38 81.81
  A 0.32 0.32 0.0 0 1 970.68 82.24
  L 923.04 213.76
  A 0.32 0.32 0.0 0 0 923.34 214.19
  L 974.30 214.19
  A 0.32 0.32 0.0 0 0 974.60 213.98
  L 1022.40 82.02
  A 0.32 0.32 0.0 0 1 1022.70 81.81
  L 1136.58 81.81
  A 0.32 0.32 0.0 0 1 1136.88 82.24
  L 1120.46 127.60
  A 0.32 0.32 0.0 0 1 1120.16 127.81
  Z"
/>
</svg>
