<?xml version="1.0" encoding="UTF-8" standalone="no"?>
<!DOCTYPE svg PUBLIC "-//W3C//DTD SVG 1.1//EN" "http://www.w3.org/Graphics/SVG/1.1/DTD/svg11.dtd">
<svg xmlns="http://www.w3.org/2000/svg" version="1.1" viewBox="0.00 0.00 200.00 200.00">
<path fill="#000000" d="
  M 34.17 64.53
  A 0.32 0.32 0.0 0 0 34.72 64.75
  Q 43.12 55.99 53.66 55.52
  Q 65.22 55.01 74.01 61.70
  C 84.75 69.87 88.30 85.74 84.34 98.61
  Q 79.13 115.58 62.00 119.44
  C 51.81 121.74 40.33 119.10 33.86 110.42
  A 0.20 0.20 0.0 0 0 33.50 110.54
  L 33.50 118.33
  A 0.50 0.49 -0.0 0 1 33.00 118.82
  L 12.54 118.82
  A 0.54 0.54 0.0 0 1 12.00 118.28
  L 12.00 110.20
  A 0.52 0.52 0.0 0 1 12.52 109.68
  L 21.95 109.68
  A 0.55 0.55 0.0 0 0 22.50 109.13
  L 22.50 31.74
  A 0.55 0.55 0.0 0 0 21.95 31.19
  L 12.53 31.19
  A 0.54 0.53 90.0 0 1 12.00 30.65
  L 12.00 22.59
  A 0.59 0.59 0.0 0 1 12.59 22.00
  L 33.58 22.00
  A 0.59 0.59 0.0 0 1 34.17 22.59
  L 34.17 64.53
  Z
  M 53.1755 64.9435
  A 23.18 20.76 -91.0 0 0 32.8232 88.4823
  A 23.18 20.76 -91.0 0 0 53.9845 111.2965
  A 23.18 20.76 -91.0 0 0 74.3368 87.7577
  A 23.18 20.76 -91.0 0 0 53.1755 64.9435
  Z"
/>
<path fill="#000000" d="
  M 100.19 35.34
  L 110.52 35.34
  A 0.67 0.66 90.0 0 1 111.18 36.01
  L 111.18 56.42
  A 0.39 0.38 0.0 0 0 111.57 56.80
  L 122.52 56.80
  A 0.51 0.50 90.0 0 1 123.02 57.31
  L 123.02 65.58
  A 0.40 0.40 0.0 0 1 122.62 65.98
  L 111.62 65.98
  A 0.43 0.43 0.0 0 0 111.19 66.41
  Q 111.17 97.68 111.25 103.25
  Q 111.29 106.07 112.06 107.91
  A 2.89 2.89 0.0 0 0 114.73 109.69
  L 121.76 109.69
  A 1.09 1.09 0.0 0 1 122.85 110.78
  L 122.85 117.27
  A 2.21 2.21 0.0 0 1 121.01 119.45
  Q 113.19 120.79 106.89 119.64
  C 99.91 118.37 99.53 111.24 99.50 105.25
  Q 99.50 105.06 99.48 66.61
  A 0.63 0.62 -0.0 0 0 98.85 65.99
  L 89.29 65.99
  A 0.48 0.48 0.0 0 1 88.81 65.51
  L 88.81 57.28
  A 0.47 0.46 -90.0 0 1 89.27 56.81
  L 98.91 56.81
  A 0.59 0.58 0.0 0 0 99.50 56.23
  L 99.50 36.03
  A 0.69 0.69 0.0 0 1 100.19 35.34
  Z"
/>
<path fill="#000000" d="
  M 177.52 62.55
  L 177.52 56.98
  A 0.18 0.17 90.0 0 1 177.69 56.80
  L 186.34 56.80
  A 0.32 0.32 0.0 0 1 186.66 57.12
  L 186.66 77.74
  A 0.60 0.60 0.0 0 1 186.06 78.34
  L 178.72 78.34
  A 0.80 0.80 0.0 0 1 177.98 77.84
  Q 173.10 65.35 160.52 64.80
  C 149.75 64.33 142.65 74.20 141.41 84.49
  C 139.54 99.97 149.29 114.69 166.50 109.95
  Q 174.67 107.70 181.54 99.81
  A 0.26 0.26 0.0 0 1 181.91 99.79
  L 188.59 105.82
  A 0.21 0.21 0.0 0 1 188.61 106.12
  Q 176.65 120.52 158.83 120.14
  C 136.77 119.66 126.70 100.58 130.10 80.60
  C 132.51 66.43 141.84 57.03 156.35 55.64
  Q 168.82 54.44 176.89 62.81
  A 0.37 0.37 0.0 0 0 177.52 62.55
  Z"
/>
<path fill="#000000" d="
  M 123.85 139.41
  L 123.85 148.79
  A 0.62 0.62 0.0 0 1 123.13 149.40
  Q 122.51 149.31 121.74 148.55
  A 0.70 0.70 0.0 0 0 120.83 148.49
  C 117.49 150.98 113.94 148.97 113.43 145.01
  Q 113.26 143.64 113.32 136.25
  Q 113.34 134.13 113.59 132.78
  C 114.84 126.06 125.00 127.78 123.86 135.56
  A 0.56 0.55 4.2 0 1 123.31 136.03
  L 120.84 136.03
  A 0.68 0.68 0.0 0 1 120.16 135.33
  Q 120.24 133.22 119.58 132.46
  A 1.24 1.24 0.0 0 0 117.42 133.16
  Q 116.79 139.91 117.33 144.94
  Q 117.38 145.35 117.73 145.69
  A 1.35 1.19 29.0 0 0 119.93 145.21
  Q 120.01 144.76 120.18 142.76
  A 0.69 0.69 0.0 0 0 119.49 142.01
  L 118.79 142.01
  A 0.95 0.94 -90.0 0 1 117.85 141.06
  L 117.85 139.56
  A 0.77 0.77 0.0 0 1 118.62 138.79
  L 123.22 138.79
  A 0.63 0.62 -0.0 0 1 123.85 139.41
  Z"
/>
<path fill="#000000" d="
  M 19.35 140.31
  Q 19.53 140.31 21.44 129.80
  A 0.82 0.82 0.0 0 1 22.24 129.13
  L 25.86 129.13
  A 0.67 0.67 0.0 0 1 26.53 129.80
  L 26.53 148.20
  A 1.07 1.06 0.0 0 1 25.46 149.26
  L 24.31 149.26
  A 1.15 1.14 0.0 0 1 23.16 148.12
  L 23.16 137.43
  A 0.17 0.17 0.0 0 0 22.82 137.40
  Q 21.92 142.51 20.81 147.27
  Q 20.33 149.33 19.35 149.33
  Q 18.40 149.33 17.91 147.28
  Q 16.77 142.53 15.84 137.42
  A 0.17 0.17 0.0 0 0 15.50 137.45
  L 15.56 148.14
  A 1.15 1.14 -0.4 0 1 14.42 149.29
  L 13.27 149.30
  A 1.07 1.06 -0.4 0 1 12.19 148.24
  L 12.08 129.84
  A 0.67 0.67 0.0 0 1 12.74 129.17
  L 16.36 129.15
  A 0.82 0.82 0.0 0 1 17.17 129.81
  Q 19.15 140.31 19.35 140.31
  Z"
/>
<path fill="#000000" d="
  M 34.26 129.13
  Q 35.83 129.12 36.08 129.19
  A 0.76 0.75 -88.9 0 1 36.65 129.79
  L 40.02 148.23
  A 0.93 0.92 -5.1 0 1 39.10 149.32
  L 37.80 149.32
  A 1.25 1.25 0.0 0 1 36.58 148.35
  L 36.01 145.84
  A 1.40 1.40 0.0 0 0 35.27 144.91
  Q 35.01 144.78 34.28 144.78
  Q 33.52 144.78 33.26 144.91
  A 1.40 1.40 0.0 0 0 32.52 145.84
  L 31.95 148.35
  A 1.25 1.25 0.0 0 1 30.73 149.32
  L 29.43 149.32
  A 0.93 0.92 5.1 0 1 28.51 148.24
  L 31.87 129.79
  A 0.76 0.75 88.8 0 1 32.44 129.19
  Q 32.69 129.13 34.26 129.13
  Z
  M 33.70 141.54
  L 34.74 141.58
  A 0.24 0.24 0.0 0 0 34.99 141.35
  L 35.00 141.14
  A 6.41 0.62 -87.7 0 0 34.64 134.71
  L 34.36 134.70
  A 6.41 0.62 -87.7 0 0 33.48 141.08
  L 33.47 141.29
  A 0.24 0.24 0.0 0 0 33.70 141.54
  Z"
/>
<path fill="#000000" d="
  M 45.71 148.42
  A 0.85 0.84 -1.3 0 1 44.86 149.30
  L 42.92 149.30
  A 0.95 0.94 -0.0 0 1 41.97 148.36
  L 41.97 129.79
  A 0.64 0.64 0.0 0 1 42.62 129.15
  C 46.23 129.17 51.24 128.22 52.50 132.46
  Q 53.79 136.82 51.04 140.27
  A 1.12 1.11 55.0 0 0 50.86 141.31
  L 53.20 148.26
  A 0.72 0.72 0.0 0 1 52.52 149.20
  L 50.64 149.20
  A 1.46 1.45 -7.9 0 1 49.24 148.15
  Q 47.75 143.08 47.25 141.76
  Q 47.04 141.21 46.65 141.10
  A 0.76 0.71 -81.2 0 0 45.74 141.81
  Q 45.58 145.53 45.71 148.42
  Z
  M 45.82 132.86
  L 45.86 137.46
  A 0.71 0.71 0.0 0 0 46.58 138.17
  L 46.86 138.17
  A 2.59 2.37 89.5 0 0 49.20 135.56
  L 49.20 134.72
  A 2.59 2.37 89.5 0 0 46.80 132.15
  L 46.52 132.15
  A 0.71 0.71 0.0 0 0 45.82 132.86
  Z"
/>
<path fill="#000000" d="
  M 63.68 129.09
  L 65.92 129.09
  A 0.61 0.61 0.0 0 1 66.45 130.00
  L 63.50 135.11
  A 2.46 2.43 50.9 0 0 63.30 137.13
  L 67.03 148.24
  A 0.75 0.74 80.7 0 1 66.33 149.23
  L 64.77 149.23
  A 1.59 1.59 0.0 0 1 63.26 148.14
  L 60.99 141.40
  A 0.64 0.64 0.0 0 0 59.75 141.60
  L 59.75 148.41
  A 0.86 0.85 -90.0 0 1 58.90 149.27
  L 57.02 149.27
  A 1.05 1.05 0.0 0 1 55.97 148.22
  L 55.97 130.06
  A 0.98 0.97 90.0 0 1 56.94 129.08
  L 58.70 129.08
  A 1.01 1.00 -90.0 0 1 59.70 130.09
  L 59.70 134.99
  A 0.10 0.10 0.0 0 0 59.88 135.04
  L 63.14 129.40
  A 0.63 0.62 15.0 0 1 63.68 129.09
  Z"
/>
<rect fill="#000000" x="92.95" y="129.14" width="3.72" height="20.08" rx="0.73"/>
<path fill="#000000" d="
  M 107.04 138.24
  A 0.17 0.17 0.0 0 0 107.36 138.17
  L 107.38 130.04
  A 0.90 0.90 0.0 0 1 108.28 129.14
  L 110.10 129.14
  A 0.96 0.95 -89.9 0 1 111.05 130.11
  L 111.01 148.47
  A 0.65 0.65 0.0 0 1 110.46 149.12
  Q 108.96 149.33 107.94 148.88
  A 1.13 1.11 -87.6 0 1 107.32 148.20
  L 104.06 138.45
  A 0.14 0.14 0.0 0 0 103.79 138.49
  L 103.77 148.43
  A 0.74 0.74 0.0 0 1 103.03 149.17
  L 100.91 149.17
  A 0.79 0.78 -89.9 0 1 100.13 148.37
  L 100.17 130.05
  A 0.95 0.95 0.0 0 1 100.89 129.13
  Q 103.78 128.44 104.64 131.22
  Q 106.37 136.77 107.04 138.24
  Z"
/>
<path fill="#000000" d="
  M 79.19 129.80
  L 79.19 131.73
  A 0.62 0.62 0.0 0 1 78.57 132.35
  L 74.15 132.35
  A 0.62 0.62 0.0 0 0 73.53 132.97
  L 73.53 136.56
  A 0.62 0.62 0.0 0 0 74.15 137.18
  L 77.29 137.18
  A 0.62 0.62 0.0 0 1 77.91 137.80
  L 77.91 139.91
  A 0.62 0.62 0.0 0 1 77.29 140.53
  L 74.13 140.53
  A 0.62 0.62 0.0 0 0 73.51 141.15
  L 73.51 145.38
  A 0.62 0.62 0.0 0 0 74.13 146.00
  L 78.94 146.00
  A 0.62 0.62 0.0 0 1 79.56 146.62
  L 79.56 148.58
  A 0.62 0.62 0.0 0 1 78.94 149.20
  L 70.28 149.20
  A 0.62 0.62 0.0 0 1 69.66 148.58
  L 69.66 129.80
  A 0.62 0.62 0.0 0 1 70.28 129.18
  L 78.57 129.18
  A 0.62 0.62 0.0 0 1 79.19 129.80
  Z"
/>
<path fill="#000000" d="
  M 85.74 129.15
  Q 88.11 129.12 90.20 129.14
  A 0.72 0.72 0.0 0 1 90.91 129.86
  L 90.91 131.61
  A 0.76 0.75 -0.0 0 1 90.15 132.36
  L 88.41 132.36
  A 0.76 0.75 90.0 0 0 87.66 133.12
  L 87.66 148.41
  A 0.89 0.89 0.0 0 1 86.78 149.30
  Q 86.45 149.31 85.85 149.31
  Q 85.26 149.31 84.93 149.31
  A 0.89 0.89 0.0 0 1 84.04 148.43
  L 83.87 133.14
  A 0.76 0.75 89.4 0 0 83.11 132.39
  L 81.38 132.41
  A 0.76 0.75 -0.6 0 1 80.61 131.67
  L 80.59 129.92
  A 0.72 0.72 0.0 0 1 81.29 129.19
  Q 83.38 129.14 85.74 129.15
  Z"
/>
<path fill="#000000" d="
  M 22.01 160.50
  L 19.31 160.50
  A 0.55 0.55 0.0 0 1 18.76 159.91
  Q 18.99 156.17 17.20 156.56
  Q 16.05 156.80 15.98 158.06
  Q 15.60 164.55 16.02 169.59
  A 1.31 1.27 82.3 0 0 17.53 170.78
  Q 18.67 170.56 19.10 167.69
  A 1.02 1.02 0.0 0 1 20.11 166.81
  L 22.07 166.81
  A 0.50 0.49 -2.5 0 1 22.57 167.26
  Q 23.14 174.32 16.75 174.10
  Q 12.89 173.97 12.27 169.68
  Q 11.64 165.35 12.17 158.21
  C 12.68 151.17 23.36 151.43 22.62 159.95
  A 0.61 0.60 2.6 0 1 22.01 160.50
  Z"
/>
<path fill="#000000" d="
  M 35.64 169.02
  A 5.07 5.07 0.0 0 1 30.57 174.09
  L 29.89 174.09
  A 5.07 5.07 0.0 0 1 24.82 169.02
  L 24.82 158.38
  A 5.07 5.07 0.0 0 1 29.89 153.31
  L 30.57 153.31
  A 5.07 5.07 0.0 0 1 35.64 158.38
  L 35.64 169.02
  Z
  M 31.9106 158.3671
  A 1.63 1.63 0.0 0 0 30.2778 156.7399
  L 30.1578 156.7401
  A 1.63 1.63 0.0 0 0 28.5306 158.3730
  L 28.5494 169.0929
  A 1.63 1.63 0.0 0 0 30.1822 170.7201
  L 30.3022 170.7199
  A 1.63 1.63 0.0 0 0 31.9294 169.0870
  L 31.9106 158.3671
  Z"
/>
<path fill="#000000" d="
  M 112.85 163.70
  Q 112.85 168.81 112.89 169.62
  A 1.24 1.24 0.0 0 0 114.92 170.51
  Q 115.82 169.77 115.81 167.93
  A 1.14 1.14 0.0 0 1 116.95 166.79
  L 118.39 166.79
  A 1.14 1.14 0.0 0 1 119.53 167.94
  Q 119.51 173.46 115.30 174.02
  C 108.18 174.98 108.96 168.54 108.96 163.71
  C 108.95 158.87 108.17 152.43 115.29 153.38
  Q 119.51 153.95 119.53 159.47
  A 1.14 1.14 0.0 0 1 118.39 160.62
  L 116.95 160.62
  A 1.14 1.14 0.0 0 1 115.81 159.48
  Q 115.82 157.64 114.92 156.90
  A 1.24 1.24 0.0 0 0 112.88 157.79
  Q 112.85 158.60 112.85 163.70
  Z"
/>
<path fill="#000000" d="
  M 161.5714 169.1881
  A 4.96 4.96 0.0 0 1 156.5855 174.1221
  L 155.7456 174.1177
  A 4.96 4.96 0.0 0 1 150.8116 169.1318
  L 150.8686 158.2519
  A 4.96 4.96 0.0 0 1 155.8545 153.3179
  L 156.6944 153.3223
  A 4.96 4.96 0.0 0 1 161.6284 158.3082
  L 161.5714 169.1881
  Z
  M 157.8721 158.4011
  A 1.65 1.65 0.0 0 0 156.2135 156.7598
  L 156.0935 156.7604
  A 1.65 1.65 0.0 0 0 154.4522 158.4190
  L 154.5079 169.0589
  A 1.65 1.65 0.0 0 0 156.1665 170.7002
  L 156.2865 170.6996
  A 1.65 1.65 0.0 0 0 157.9278 169.0410
  L 157.8721 158.4011
  Z"
/>
<path fill="#000000" d="
  M 187.92 158.82
  Q 184.99 159.34 184.15 157.32
  A 1.20 1.13 -52.2 0 0 181.94 157.66
  C 181.09 162.11 189.98 163.28 188.49 170.18
  C 187.23 176.07 178.23 175.44 177.78 168.85
  A 0.67 0.66 82.0 0 1 178.30 168.15
  Q 181.33 167.48 182.00 169.69
  A 1.50 1.45 -45.1 0 0 184.82 169.64
  C 186.07 165.86 175.94 163.30 178.50 156.29
  C 180.23 151.56 188.12 152.40 188.39 158.24
  A 0.57 0.56 -6.4 0 1 187.92 158.82
  Z"
/>
<path fill="#000000" d="
  M 46.02 173.86
  Q 45.05 173.86 44.57 171.81
  Q 43.44 167.06 42.53 161.96
  A 0.17 0.17 0.0 0 0 42.19 161.99
  L 42.22 172.67
  A 1.15 1.14 -0.2 0 1 41.07 173.81
  L 39.93 173.81
  A 1.07 1.06 -0.2 0 1 38.85 172.75
  L 38.80 154.38
  A 0.67 0.67 0.0 0 1 39.47 153.71
  L 43.09 153.70
  A 0.82 0.82 0.0 0 1 43.89 154.37
  Q 45.83 164.86 46.01 164.86
  Q 46.20 164.86 48.15 154.37
  A 0.82 0.82 0.0 0 1 48.95 153.70
  L 52.57 153.72
  A 0.67 0.67 0.0 0 1 53.23 154.39
  L 53.17 172.76
  A 1.07 1.06 0.2 0 1 52.10 173.81
  L 50.95 173.81
  A 1.15 1.14 0.2 0 1 49.81 172.67
  L 49.84 161.99
  A 0.17 0.17 0.0 0 0 49.50 161.96
  Q 48.59 167.06 47.46 171.82
  Q 46.98 173.86 46.02 173.86
  Z"
/>
<rect fill="#000000" x="-1.80" y="-10.06" transform="translate(145.66,163.66) rotate(-0.1)" width="3.60" height="20.12" rx="0.75"/>
<path fill="#000000" d="
  M 171.63 162.76
  A 0.17 0.17 0.0 0 0 171.95 162.69
  L 171.99 154.51
  A 0.91 0.91 0.0 0 1 172.91 153.61
  L 174.74 153.62
  A 0.97 0.96 -89.7 0 1 175.69 154.59
  L 175.60 173.08
  A 0.66 0.65 86.3 0 1 175.03 173.73
  Q 173.52 173.94 172.50 173.49
  A 1.14 1.12 -87.4 0 1 171.88 172.79
  L 168.63 162.97
  A 0.14 0.14 0.0 0 0 168.36 163.00
  L 168.31 173.02
  A 0.75 0.75 0.0 0 1 167.55 173.76
  L 165.42 173.75
  A 0.80 0.79 -89.7 0 1 164.64 172.95
  L 164.73 154.49
  A 0.96 0.96 0.0 0 1 165.47 153.57
  Q 168.37 152.88 169.24 155.69
  Q 170.96 161.29 171.63 162.76
  Z"
/>
<path fill="#000000" d="
  M 59.65 161.48
  A 0.03 0.03 0.0 0 0 59.59 161.49
  L 59.59 172.87
  A 0.92 0.92 0.0 0 1 58.67 173.79
  L 57.43 173.79
  A 1.05 1.05 0.0 0 1 56.38 172.74
  L 56.38 154.43
  A 0.73 0.73 0.0 0 1 57.11 153.70
  L 60.37 153.70
  A 1.10 1.09 -5.0 0 1 61.45 154.60
  L 63.36 165.03
  A 0.09 0.09 0.0 0 0 63.53 165.03
  L 65.69 154.41
  A 0.95 0.95 0.0 0 1 66.62 153.66
  L 69.85 153.66
  A 0.80 0.79 -0.0 0 1 70.65 154.45
  L 70.65 172.81
  A 0.96 0.95 -0.0 0 1 69.69 173.76
  L 68.20 173.76
  A 0.91 0.91 0.0 0 1 67.29 172.85
  L 67.29 161.21
  A 0.07 0.06 -39.9 0 0 67.16 161.20
  L 64.74 173.08
  A 1.09 1.09 0.0 0 1 62.88 173.61
  Q 62.17 172.85 61.91 171.29
  Q 61.01 165.77 59.65 161.48
  Z"
/>
<path fill="#000000" d="
  M 79.17 170.71
  Q 80.73 170.71 80.78 168.99
  Q 80.89 164.80 80.78 154.56
  A 0.90 0.89 89.7 0 1 81.67 153.65
  L 83.61 153.65
  A 0.89 0.89 0.0 0 1 84.50 154.54
  Q 84.54 164.35 84.44 169.47
  C 84.38 172.70 82.13 174.13 79.18 174.14
  C 76.22 174.14 73.97 172.71 73.90 169.48
  Q 73.79 164.36 73.82 154.55
  A 0.89 0.89 0.0 0 1 74.70 153.66
  L 76.64 153.65
  A 0.90 0.89 -89.8 0 1 77.54 154.56
  Q 77.44 164.80 77.57 169.00
  Q 77.62 170.71 79.17 170.71
  Z"
/>
<path fill="#000000" d="
  M 95.08 162.73
  L 95.08 154.55
  A 0.91 0.91 0.0 0 1 95.99 153.64
  L 97.82 153.64
  A 0.97 0.96 90.0 0 1 98.78 154.61
  L 98.78 173.10
  A 0.66 0.65 86.0 0 1 98.22 173.75
  Q 96.71 173.97 95.69 173.52
  A 1.14 1.12 -87.7 0 1 95.06 172.83
  L 91.76 163.02
  A 0.14 0.14 0.0 0 0 91.49 163.06
  L 91.49 173.07
  A 0.75 0.75 0.0 0 1 90.74 173.82
  L 88.61 173.82
  A 0.80 0.79 90.0 0 1 87.82 173.02
  L 87.82 154.57
  A 0.96 0.96 0.0 0 1 88.55 153.64
  Q 91.45 152.94 92.33 155.74
  Q 94.08 161.33 94.76 162.80
  A 0.17 0.17 0.0 0 0 95.08 162.73
  Z"
/>
<rect fill="#000000" x="101.98" y="153.70" width="3.68" height="20.02" rx="0.77"/>
<path fill="#000000" d="
  M 126.36 169.30
  Q 125.59 169.30 125.33 169.43
  A 1.40 1.40 0.0 0 0 124.60 170.36
  L 124.03 172.87
  A 1.25 1.24 6.3 0 1 122.82 173.84
  L 121.52 173.84
  A 0.93 0.92 5.1 0 1 120.60 172.76
  L 123.94 154.34
  A 0.76 0.75 88.8 0 1 124.50 153.74
  Q 124.76 153.67 126.32 153.67
  Q 127.89 153.67 128.14 153.74
  A 0.76 0.75 -88.9 0 1 128.71 154.33
  L 132.09 172.74
  A 0.93 0.92 -5.2 0 1 131.17 173.83
  L 129.87 173.83
  A 1.25 1.24 -6.4 0 1 128.65 172.87
  L 128.08 170.36
  A 1.40 1.40 0.0 0 0 127.35 169.43
  Q 127.09 169.30 126.36 169.30
  Z
  M 125.80 165.90
  L 126.85 165.94
  A 0.25 0.25 0.0 0 0 127.11 165.70
  L 127.12 165.53
  A 6.30 0.69 -87.7 0 0 126.68 159.21
  L 126.50 159.20
  A 6.30 0.69 -87.7 0 0 125.56 165.47
  L 125.56 165.64
  A 0.25 0.25 0.0 0 0 125.80 165.90
  Z"
/>
<path fill="#000000" d="
  M 136.48 173.72
  Q 135.89 173.72 135.56 173.71
  A 0.89 0.88 -89.7 0 1 134.69 172.83
  L 134.66 157.64
  A 0.75 0.74 89.9 0 0 133.91 156.89
  L 132.19 156.89
  A 0.75 0.74 -0.1 0 1 131.43 156.15
  L 131.43 154.41
  A 0.71 0.71 0.0 0 1 132.13 153.70
  Q 134.20 153.67 136.55 153.70
  Q 138.91 153.69 140.98 153.73
  A 0.71 0.71 0.0 0 1 141.68 154.45
  L 141.66 156.19
  A 0.75 0.74 0.5 0 1 140.90 156.93
  L 139.17 156.91
  A 0.75 0.74 -89.5 0 0 138.42 157.66
  L 138.28 172.84
  A 0.89 0.88 -89.9 0 1 137.40 173.72
  Q 137.07 173.72 136.48 173.72
  Z"
/>
</svg>
