<?xml version="1.0" encoding="UTF-8" standalone="no"?>
<!DOCTYPE svg PUBLIC "-//W3C//DTD SVG 1.1//EN" "http://www.w3.org/Graphics/SVG/1.1/DTD/svg11.dtd">
<svg xmlns="http://www.w3.org/2000/svg" version="1.1" viewBox="0.00 0.00 1200.00 600.00">
<circle fill="#000000" cx="262.40" cy="45.85" r="11.32"/>
<circle fill="#000000" cx="262.41" cy="88.81" r="11.32"/>
<circle fill="#000000" cx="108.11" cy="119.21" r="11.31"/>
<circle fill="#000000" cx="403.59" cy="119.21" r="11.31"/>
<path fill="#000000" d="
  M 546.57 389.72
  A 0.51 0.51 0.0 0 1 546.06 390.23
  L 460.86 390.23
  A 0.51 0.51 0.0 0 1 460.35 389.72
  L 460.35 123.68
  A 0.51 0.51 0.0 0 1 460.86 123.17
  L 546.06 123.17
  A 0.51 0.51 0.0 0 1 546.57 123.68
  L 546.57 389.72
  Z
  M 496.42 264.83
  A 11.02 11.02 0.0 0 0 485.40 253.81
  A 11.02 11.02 0.0 0 0 474.38 264.83
  A 11.02 11.02 0.0 0 0 485.40 275.85
  A 11.02 11.02 0.0 0 0 496.42 264.83
  Z"
/>
<path fill="#000000" d="
  M 916.68 184.95
  L 916.68 123.62
  A 0.43 0.43 0.0 0 1 917.11 123.19
  L 1171.60 123.19
  A 0.43 0.43 0.0 0 1 1172.03 123.62
  L 1172.03 184.99
  A 0.43 0.43 0.0 0 1 1171.60 185.42
  L 1085.99 185.42
  A 0.43 0.43 0.0 0 0 1085.56 185.85
  L 1085.56 389.81
  A 0.43 0.43 0.0 0 1 1085.13 390.24
  L 999.71 390.24
  A 0.43 0.43 0.0 0 1 999.28 389.81
  L 999.28 185.81
  A 0.43 0.43 0.0 0 0 998.85 185.38
  L 917.11 185.38
  A 0.43 0.43 0.0 0 1 916.68 184.95
  Z"
/>
<path fill="#000000" d="
  M 599.04 123.24
  Q 618.89 123.17 766.75 123.21
  Q 789.55 123.21 811.22 126.81
  C 836.37 130.98 860.49 140.77 875.60 161.79
  C 887.95 178.97 891.77 201.59 892.12 222.25
  Q 892.39 237.71 892.12 287.74
  C 891.99 311.01 887.96 337.88 873.29 356.61
  C 857.75 376.45 833.36 385.09 808.71 388.20
  Q 793.39 390.13 781.26 390.15
  Q 681.75 390.36 599.22 390.17
  A 0.51 0.51 0.0 0 1 598.72 389.66
  L 598.72 123.55
  A 0.32 0.31 0.0 0 1 599.04 123.24
  Z
  M 684.84 185.78
  L 684.84 327.61
  A 0.55 0.54 0.0 0 0 685.39 328.15
  Q 751.32 328.27 762.22 328.07
  C 783.67 327.68 798.27 318.03 802.32 296.34
  Q 803.35 290.78 803.34 279.09
  Q 803.29 227.42 803.23 222.00
  Q 803.18 217.45 801.86 210.15
  Q 798.40 191.00 779.52 187.05
  Q 771.80 185.43 766.00 185.42
  Q 718.68 185.41 685.22 185.41
  A 0.38 0.37 -0.0 0 0 684.84 185.78
  Z"
/>
<circle fill="#000000" cx="195.46" cy="135.11" r="11.33"/>
<circle fill="#000000" cx="323.46" cy="135.12" r="11.32"/>
<circle fill="#000000" cx="263.65" cy="157.73" r="26.54"/>
<circle fill="#000000" cx="183.97" cy="190.60" r="19.96"/>
<circle fill="#000000" cx="343.64" cy="191.70" r="19.95"/>
<circle fill="#000000" cx="118.86" cy="199.80" r="11.32"/>
<circle fill="#000000" cx="403.13" cy="199.78" r="11.33"/>
<circle fill="#000000" cx="262.02" cy="263.41" r="50.20"/>
<circle fill="#000000" cx="148.34" cy="263.17" r="26.53"/>
<circle fill="#000000" cx="376.59" cy="263.17" r="26.55"/>
<circle fill="#000000" cx="38.55" cy="264.80" r="11.31"/>
<circle fill="#000000" cx="81.48" cy="264.81" r="11.31"/>
<circle fill="#000000" cx="439.05" cy="264.81" r="11.34"/>
<circle fill="#000000" cx="118.88" cy="321.05" r="11.32"/>
<circle fill="#000000" cx="403.12" cy="321.06" r="11.32"/>
<circle fill="#000000" cx="343.64" cy="336.84" r="19.94"/>
<circle fill="#000000" cx="183.98" cy="337.94" r="19.94"/>
<circle fill="#000000" cx="263.64" cy="374.62" r="26.54"/>
<circle fill="#000000" cx="110.55" cy="387.78" r="11.33"/>
<circle fill="#000000" cx="403.54" cy="387.75" r="11.30"/>
<circle fill="#000000" cx="195.42" cy="388.75" r="11.33"/>
<circle fill="#000000" cx="323.42" cy="388.75" r="11.32"/>
<circle fill="#000000" cx="262.39" cy="434.60" r="11.33"/>
<path fill="#000000" d="
  M 688.4612 462.2966
  A 34.09 32.55 -1.3 0 1 655.1185 495.6116
  A 34.09 32.55 -1.3 0 1 620.2988 463.8434
  A 34.09 32.55 -1.3 0 1 653.6415 430.5284
  A 34.09 32.55 -1.3 0 1 688.4612 462.2966
  Z
  M 678.8570 462.7661
  A 24.44 23.75 -0.9 0 0 654.0470 439.4029
  A 24.44 23.75 -0.9 0 0 629.9830 463.5339
  A 24.44 23.75 -0.9 0 0 654.7930 486.8971
  A 24.44 23.75 -0.9 0 0 678.8570 462.7661
  Z"
/>
<path fill="#000000" d="
  M 800.83 494.62
  L 792.68 494.62
  A 0.62 0.62 0.0 0 1 792.11 493.76
  L 818.68 431.65
  A 0.62 0.62 0.0 0 1 819.25 431.27
  L 824.86 431.27
  A 0.62 0.62 0.0 0 1 825.42 431.64
  L 853.17 493.77
  A 0.62 0.62 0.0 0 1 852.60 494.64
  L 844.38 494.64
  A 0.62 0.62 0.0 0 1 843.82 494.27
  L 835.83 476.39
  A 0.62 0.62 0.0 0 0 835.27 476.02
  L 809.61 476.02
  A 0.62 0.62 0.0 0 0 809.04 476.40
  L 801.40 494.24
  A 0.62 0.62 0.0 0 1 800.83 494.62
  Z
  M 812.88 467.46
  A 0.31 0.31 0.0 0 0 813.17 467.88
  L 831.29 467.69
  A 0.31 0.31 0.0 0 0 831.57 467.26
  L 822.29 446.19
  A 0.31 0.31 0.0 0 0 821.72 446.20
  L 812.88 467.46
  Z"
/>
<rect fill="#000000" x="374.34" y="431.57" width="9.00" height="63.00" rx="0.51"/>
<path fill="#000000" d="
  M 450.49 465.84
  Q 447.48 462.27 433.95 446.82
  A 0.16 0.16 0.0 0 0 433.67 446.93
  L 433.66 494.23
  A 0.38 0.37 0.0 0 1 433.28 494.60
  L 425.25 494.60
  A 0.36 0.36 0.0 0 1 424.89 494.24
  L 424.90 432.16
  A 0.56 0.56 0.0 0 1 425.46 431.60
  L 431.68 431.60
  A 1.83 1.82 69.2 0 1 433.05 432.22
  Q 447.72 448.80 457.59 460.46
  Q 460.62 464.01 474.15 479.46
  A 0.16 0.16 0.0 0 0 474.43 479.35
  L 474.44 432.05
  A 0.38 0.37 0.0 0 1 474.82 431.68
  L 482.85 431.68
  A 0.36 0.36 0.0 0 1 483.21 432.04
  L 483.20 494.12
  A 0.56 0.56 0.0 0 1 482.64 494.68
  L 476.42 494.68
  A 1.83 1.82 69.2 0 1 475.05 494.06
  Q 460.38 477.48 450.49 465.84
  Z"
/>
<path fill="#000000" d="
  M 556.98 460.51
  Q 560.00 464.07 573.55 479.52
  A 0.16 0.16 0.0 0 0 573.83 479.41
  L 573.83 432.09
  A 0.38 0.37 -0.0 0 1 574.21 431.72
  L 582.25 431.72
  A 0.36 0.36 0.0 0 1 582.61 432.08
  L 582.61 494.19
  A 0.56 0.56 0.0 0 1 582.05 494.75
  L 575.82 494.75
  A 1.83 1.82 69.2 0 1 574.45 494.13
  Q 559.77 477.54 549.87 465.90
  Q 546.87 462.32 533.32 446.87
  A 0.16 0.16 0.0 0 0 533.04 446.99
  L 533.04 494.31
  A 0.38 0.37 -0.0 0 1 532.66 494.68
  L 524.62 494.68
  A 0.36 0.36 0.0 0 1 524.26 494.32
  L 524.26 432.21
  A 0.56 0.56 0.0 0 1 524.82 431.65
  L 531.05 431.65
  A 1.83 1.82 69.2 0 1 532.42 432.26
  Q 547.10 448.85 556.98 460.51
  Z"
/>
<path fill="#000000" d="
  M 744.19 495.00
  Q 743.13 495.01 742.82 494.28
  Q 722.46 446.64 716.11 431.86
  A 0.12 0.11 -11.8 0 1 716.22 431.70
  L 725.04 431.65
  A 0.43 0.42 -11.9 0 1 725.44 431.89
  L 743.87 474.86
  A 0.32 0.10 71.2 0 0 744.01 475.04
  Q 744.07 475.06 744.16 475.06
  Q 744.22 475.06 744.28 475.04
  A 0.32 0.10 -71.5 0 0 744.42 474.85
  L 762.63 431.80
  A 0.43 0.42 11.6 0 1 763.02 431.55
  L 771.84 431.55
  A 0.12 0.11 11.5 0 1 771.95 431.71
  Q 765.69 446.52 745.57 494.27
  Q 745.26 495.00 744.19 495.00
  Z"
/>
<path fill="#000000" d="
  M 899.32 431.60
  Q 912.36 431.65 924.97 431.64
  A 0.62 0.62 0.0 0 1 925.59 432.26
  L 925.59 439.26
  A 0.59 0.59 0.0 0 1 925.00 439.85
  L 904.21 439.85
  A 0.30 0.30 0.0 0 0 903.91 440.15
  L 903.86 494.14
  A 0.47 0.46 -2.7 0 1 903.44 494.60
  Q 903.40 494.60 899.19 494.59
  Q 894.98 494.59 894.95 494.58
  A 0.47 0.46 2.9 0 1 894.53 494.12
  L 894.70 440.13
  A 0.30 0.30 0.0 0 0 894.40 439.83
  L 873.61 439.75
  A 0.59 0.59 0.0 0 1 873.02 439.15
  L 873.05 432.15
  A 0.62 0.62 0.0 0 1 873.67 431.54
  Q 886.28 431.59 899.32 431.60
  Z"
/>
<rect fill="#000000" x="961.61" y="431.60" width="9.24" height="63.02" rx="0.53"/>
<path fill="#000000" d="
  M 1033.35 475.05
  Q 1033.41 475.05 1033.47 475.03
  A 0.32 0.10 -71.5 0 0 1033.61 474.84
  L 1051.80 431.79
  A 0.43 0.42 11.6 0 1 1052.19 431.54
  L 1061.01 431.54
  A 0.12 0.11 11.4 0 1 1061.12 431.70
  Q 1054.86 446.51 1034.76 494.25
  Q 1034.46 494.98 1033.39 494.98
  Q 1032.33 494.99 1032.02 494.26
  Q 1011.64 446.64 1005.30 431.86
  A 0.12 0.11 -11.8 0 1 1005.40 431.70
  L 1014.22 431.65
  A 0.43 0.42 -11.9 0 1 1014.62 431.90
  L 1033.06 474.84
  A 0.32 0.10 71.2 0 0 1033.20 475.03
  Q 1033.26 475.05 1033.35 475.05
  Z"
/>
<path fill="#000000" d="
  M 1129.67 467.04
  L 1105.13 467.04
  A 0.55 0.55 0.0 0 0 1104.58 467.59
  L 1104.58 485.77
  A 0.55 0.55 0.0 0 0 1105.13 486.32
  L 1131.34 486.32
  A 0.55 0.55 0.0 0 1 1131.89 486.87
  L 1131.89 494.02
  A 0.55 0.55 0.0 0 1 1131.34 494.57
  L 1095.83 494.57
  A 0.55 0.55 0.0 0 1 1095.28 494.02
  L 1095.28 432.15
  A 0.55 0.55 0.0 0 1 1095.83 431.60
  L 1130.51 431.60
  A 0.55 0.55 0.0 0 1 1131.06 432.15
  L 1131.06 439.28
  A 0.55 0.55 0.0 0 1 1130.51 439.83
  L 1105.11 439.83
  A 0.55 0.55 0.0 0 0 1104.56 440.38
  L 1104.56 458.19
  A 0.55 0.55 0.0 0 0 1105.11 458.74
  L 1129.67 458.74
  A 0.55 0.55 0.0 0 1 1130.22 459.29
  L 1130.22 466.49
  A 0.55 0.55 0.0 0 1 1129.67 467.04
  Z"
/>
<circle fill="#000000" cx="262.39" cy="477.58" r="11.32"/>
<path fill="#000000" d="
  M 916.2136 540.9764
  A 24.84 23.69 -1.3 0 1 891.9175 565.2239
  A 24.84 23.69 -1.3 0 1 866.5464 542.1036
  A 24.84 23.69 -1.3 0 1 890.8425 517.8561
  A 24.84 23.69 -1.3 0 1 916.2136 540.9764
  Z
  M 909.1799 541.5780
  A 17.77 17.24 -0.2 0 0 891.3498 524.4001
  A 17.77 17.24 -0.2 0 0 873.6401 541.7020
  A 17.77 17.24 -0.2 0 0 891.4702 558.8799
  A 17.77 17.24 -0.2 0 0 909.1799 541.5780
  Z"
/>
<path fill="#000000" d="
  M 1003.0876 541.2030
  A 24.85 23.69 -0.8 0 1 978.5708 565.2377
  A 24.85 23.69 -0.8 0 1 953.3924 541.8970
  A 24.85 23.69 -0.8 0 1 977.9092 517.8623
  A 24.85 23.69 -0.8 0 1 1003.0876 541.2030
  Z
  M 996.0331 541.1441
  A 17.76 17.24 -1.6 0 0 977.7986 524.4067
  A 17.76 17.24 -1.6 0 0 960.5269 542.1359
  A 17.76 17.24 -1.6 0 0 978.7614 558.8733
  A 17.76 17.24 -1.6 0 0 996.0331 541.1441
  Z"
/>
<path fill="#000000" d="
  M 592.09 527.78
  A 0.64 0.64 0.0 0 1 591.04 528.28
  Q 583.45 522.16 577.19 525.18
  C 571.61 527.87 574.44 532.73 578.19 535.32
  Q 580.61 537.00 585.76 539.97
  C 592.91 544.09 596.13 551.84 592.06 559.30
  C 590.15 562.79 585.89 564.85 581.54 564.82
  C 576.11 564.78 573.52 564.38 569.41 561.90
  A 2.71 2.71 0.0 0 1 568.10 559.58
  L 568.10 553.46
  A 0.50 0.50 0.0 0 1 569.00 553.16
  C 571.88 557.02 577.66 559.94 582.62 558.74
  C 586.51 557.80 588.68 554.14 586.68 550.36
  C 582.76 542.94 567.23 541.95 567.88 529.53
  C 568.52 517.36 582.28 516.26 590.81 520.45
  A 2.27 2.27 0.0 0 1 592.09 522.49
  L 592.09 527.78
  Z"
/>
<path fill="#000000" d="
  M 761.62 554.79
  L 761.62 560.04
  A 1.85 1.83 -11.7 0 1 760.50 561.73
  Q 754.86 564.16 750.82 564.61
  Q 749.39 564.77 740.99 564.71
  C 736.77 564.68 731.88 562.62 728.52 559.70
  C 715.31 548.22 718.19 527.53 734.23 520.24
  C 742.22 516.61 752.54 518.08 760.63 521.73
  A 0.78 0.75 13.0 0 1 761.08 522.42
  L 761.08 528.42
  A 0.58 0.57 15.5 0 1 760.21 528.91
  Q 752.34 524.15 743.52 524.63
  C 733.55 525.16 725.73 534.15 727.38 544.25
  Q 729.19 555.42 740.43 558.26
  Q 749.37 560.51 760.55 554.17
  A 0.72 0.71 -14.7 0 1 761.62 554.79
  Z"
/>
<path fill="#000000" d="
  M 1049.44 529.00
  C 1041.96 524.44 1031.07 521.92 1023.62 526.91
  C 1009.34 536.46 1014.97 558.25 1032.60 559.11
  Q 1037.48 559.35 1043.01 557.34
  A 0.99 0.97 80.4 0 0 1043.66 556.41
  L 1043.66 548.41
  A 0.58 0.58 0.0 0 0 1043.08 547.83
  L 1035.64 547.83
  A 0.70 0.70 0.0 0 1 1034.94 547.13
  L 1034.94 542.42
  A 0.64 0.63 -0.0 0 1 1035.58 541.79
  L 1050.03 541.79
  A 0.54 0.54 0.0 0 1 1050.57 542.33
  L 1050.57 560.60
  A 1.07 1.06 -12.8 0 1 1049.96 561.56
  C 1045.90 563.45 1040.58 564.89 1035.83 564.72
  C 1033.37 564.63 1029.78 564.98 1027.05 564.44
  C 1016.45 562.32 1009.10 553.89 1008.66 543.05
  C 1008.10 529.44 1018.07 518.69 1031.77 518.19
  Q 1041.00 517.85 1049.42 522.01
  A 0.30 0.29 12.4 0 1 1049.60 522.28
  L 1049.60 528.91
  A 0.11 0.11 0.0 0 1 1049.44 529.00
  Z"
/>
<path fill="#000000" d="
  M 1130.46 527.81
  A 0.64 0.64 0.0 0 1 1129.41 528.30
  Q 1121.84 522.17 1115.57 525.17
  C 1109.98 527.85 1112.80 532.72 1116.54 535.32
  Q 1118.96 537.00 1124.10 539.98
  C 1131.25 544.12 1134.45 551.88 1130.36 559.33
  C 1128.44 562.82 1124.18 564.87 1119.83 564.83
  C 1114.40 564.78 1111.81 564.37 1107.70 561.88
  A 2.71 2.71 0.0 0 1 1106.40 559.56
  L 1106.41 553.44
  A 0.50 0.50 0.0 0 1 1107.31 553.14
  C 1110.18 557.01 1115.96 559.94 1120.92 558.75
  C 1124.81 557.82 1126.99 554.16 1125.00 550.38
  C 1121.10 542.95 1105.57 541.92 1106.25 529.50
  C 1106.91 517.33 1120.68 516.26 1129.20 520.47
  A 2.27 2.27 0.0 0 1 1130.48 522.52
  L 1130.46 527.81
  Z"
/>
<path fill="#000000" d="
  M 372.31 519.23
  A 0.58 0.58 0.0 0 1 372.89 518.65
  L 390.99 518.61
  A 23.48 22.77 -0.1 0 1 414.51 541.34
  L 414.51 541.70
  A 23.48 22.77 -0.1 0 1 391.07 564.51
  L 372.97 564.55
  A 0.58 0.58 0.0 0 1 372.39 563.97
  L 372.31 519.23
  Z
  M 378.99 524.95
  L 378.99 558.17
  A 0.23 0.23 0.0 0 0 379.22 558.40
  L 390.49 558.40
  A 17.00 16.24 0.0 0 0 407.49 542.16
  L 407.49 540.96
  A 17.00 16.24 -0.0 0 0 390.49 524.72
  L 379.22 524.72
  A 0.23 0.23 0.0 0 0 378.99 524.95
  Z"
/>
<path fill="#000000" d="
  M 428.63 525.03
  L 428.64 538.03
  A 0.48 0.48 0.0 0 0 429.13 538.51
  L 446.66 538.46
  A 0.72 0.72 0.0 0 1 447.38 539.18
  L 447.38 543.91
  A 0.72 0.71 0.1 0 1 446.65 544.62
  L 428.98 544.56
  A 0.36 0.36 0.0 0 0 428.62 544.92
  L 428.64 557.96
  A 0.54 0.54 0.0 0 0 429.18 558.50
  L 447.70 558.44
  A 0.81 0.80 89.8 0 1 448.51 559.25
  L 448.53 563.76
  A 0.83 0.83 0.0 0 1 447.70 564.58
  L 422.44 564.57
  A 0.60 0.60 0.0 0 1 421.84 563.97
  L 421.85 519.11
  A 0.49 0.49 0.0 0 1 422.34 518.61
  L 447.31 518.57
  A 0.80 0.80 0.0 0 1 448.11 519.37
  L 448.10 523.94
  A 0.79 0.78 -89.9 0 1 447.32 524.73
  L 428.98 524.68
  A 0.35 0.34 -0.7 0 0 428.63 525.03
  Z"
/>
<path fill="#000000" d="
  M 462.05 537.27
  L 478.87 537.27
  A 0.54 0.54 0.0 0 1 479.41 537.81
  L 479.41 542.70
  A 0.54 0.54 0.0 0 1 478.87 543.24
  L 462.07 543.24
  A 0.54 0.54 0.0 0 0 461.53 543.78
  L 461.53 564.06
  A 0.54 0.54 0.0 0 1 460.99 564.60
  L 455.33 564.60
  A 0.54 0.54 0.0 0 1 454.79 564.06
  L 454.79 519.14
  A 0.54 0.54 0.0 0 1 455.33 518.60
  L 478.86 518.60
  A 0.54 0.54 0.0 0 1 479.40 519.14
  L 479.40 524.17
  A 0.54 0.54 0.0 0 1 478.86 524.71
  L 462.05 524.71
  A 0.54 0.54 0.0 0 0 461.51 525.25
  L 461.51 536.73
  A 0.54 0.54 0.0 0 0 462.05 537.27
  Z"
/>
<path fill="#000000" d="
  M 492.32 525.07
  L 492.37 538.07
  A 0.48 0.48 0.0 0 0 492.86 538.55
  L 510.39 538.44
  A 0.72 0.72 0.0 0 1 511.11 539.16
  L 511.13 543.89
  A 0.72 0.71 -0.1 0 1 510.41 544.60
  L 492.74 544.60
  A 0.36 0.36 0.0 0 0 492.38 544.96
  L 492.44 558.00
  A 0.54 0.54 0.0 0 0 492.98 558.54
  L 511.50 558.42
  A 0.81 0.80 89.6 0 1 512.31 559.23
  L 512.35 563.73
  A 0.83 0.83 0.0 0 1 511.52 564.56
  L 486.26 564.64
  A 0.60 0.60 0.0 0 1 485.66 564.04
  L 485.52 519.17
  A 0.49 0.49 0.0 0 1 486.01 518.67
  L 510.98 518.54
  A 0.80 0.80 0.0 0 1 511.79 519.34
  L 511.79 523.92
  A 0.79 0.78 89.9 0 1 511.01 524.71
  L 492.67 524.71
  A 0.35 0.34 -0.8 0 0 492.32 525.07
  Z"
/>
<path fill="#000000" d="
  M 537.41 543.85
  C 532.82 538.55 525.54 529.82 525.31 529.76
  A 0.27 0.27 0.0 0 0 524.99 530.02
  L 525.04 564.19
  A 0.52 0.52 0.0 0 1 524.52 564.71
  L 519.10 564.71
  A 0.50 0.49 0.0 0 1 518.60 564.22
  L 518.60 519.05
  A 0.48 0.48 0.0 0 1 519.09 518.57
  L 523.52 518.65
  A 1.56 1.52 -19.8 0 1 524.61 519.15
  Q 525.14 519.65 542.36 539.52
  C 546.95 544.81 554.23 553.54 554.45 553.61
  A 0.27 0.27 0.0 0 0 554.78 553.34
  L 554.73 519.17
  A 0.52 0.52 0.0 0 1 555.25 518.65
  L 560.67 518.65
  A 0.50 0.49 0.0 0 1 561.17 519.14
  L 561.17 564.31
  A 0.48 0.48 0.0 0 1 560.68 564.79
  L 556.25 564.71
  A 1.56 1.52 -19.8 0 1 555.15 564.21
  Q 554.62 563.71 537.41 543.85
  Z"
/>
<path fill="#000000" d="
  M 607.06 525.03
  L 607.06 538.02
  A 0.48 0.48 0.0 0 0 607.55 538.50
  L 625.06 538.46
  A 0.72 0.72 0.0 0 1 625.77 539.18
  L 625.77 543.90
  A 0.72 0.71 0.2 0 1 625.05 544.61
  L 607.40 544.54
  A 0.36 0.36 0.0 0 0 607.04 544.90
  L 607.05 557.92
  A 0.54 0.54 0.0 0 0 607.59 558.46
  L 626.09 558.41
  A 0.81 0.80 89.8 0 1 626.89 559.23
  L 626.91 563.72
  A 0.83 0.83 0.0 0 1 626.08 564.55
  L 600.86 564.52
  A 0.60 0.60 0.0 0 1 600.26 563.92
  L 600.29 519.11
  A 0.49 0.49 0.0 0 1 600.78 518.62
  L 625.72 518.59
  A 0.80 0.80 0.0 0 1 626.52 519.39
  L 626.51 523.96
  A 0.79 0.78 -89.8 0 1 625.73 524.75
  L 607.41 524.68
  A 0.35 0.34 -0.6 0 0 607.06 525.03
  Z"
/>
<path fill="#000000" d="
  M 664.29 518.61
  Q 673.67 518.66 682.75 518.65
  A 0.74 0.73 89.9 0 1 683.49 519.39
  L 683.49 524.05
  A 0.69 0.68 -0.0 0 1 682.80 524.73
  L 668.24 524.73
  A 0.58 0.57 -90.0 0 0 667.67 525.31
  L 667.67 563.88
  A 0.77 0.77 0.0 0 1 666.85 564.65
  Q 665.93 564.59 664.21 564.59
  Q 662.49 564.58 661.57 564.64
  A 0.77 0.77 0.0 0 1 660.75 563.87
  L 660.89 525.30
  A 0.58 0.57 -89.8 0 0 660.33 524.72
  L 645.77 524.66
  A 0.69 0.68 0.2 0 1 645.08 523.98
  L 645.09 519.32
  A 0.74 0.73 -89.7 0 1 645.83 518.58
  Q 654.92 518.62 664.29 518.61
  Z"
/>
<path fill="#000000" d="
  M 695.70 525.04
  L 695.72 538.04
  A 0.48 0.48 0.0 0 0 696.21 538.52
  L 713.73 538.44
  A 0.72 0.72 0.0 0 1 714.45 539.16
  L 714.46 543.89
  A 0.72 0.71 0.1 0 1 713.74 544.60
  L 696.08 544.56
  A 0.36 0.36 0.0 0 0 695.72 544.92
  L 695.76 557.95
  A 0.54 0.54 0.0 0 0 696.30 558.49
  L 714.81 558.41
  A 0.81 0.80 89.7 0 1 715.62 559.22
  L 715.64 563.72
  A 0.83 0.83 0.0 0 1 714.81 564.55
  L 689.57 564.58
  A 0.60 0.60 0.0 0 1 688.97 563.98
  L 688.91 519.14
  A 0.49 0.49 0.0 0 1 689.40 518.64
  L 714.35 518.56
  A 0.80 0.80 0.0 0 1 715.16 519.36
  L 715.16 523.93
  A 0.79 0.78 -89.9 0 1 714.38 524.72
  L 696.05 524.69
  A 0.35 0.34 -0.7 0 0 695.70 525.04
  Z"
/>
<path fill="#000000" d="
  M 788.24 538.44
  Q 800.02 538.44 800.64 538.44
  A 0.34 0.34 0.0 0 0 800.98 538.09
  L 800.98 519.12
  A 0.56 0.56 0.0 0 1 801.54 518.56
  L 807.10 518.56
  A 0.62 0.62 0.0 0 1 807.72 519.18
  Q 807.69 524.75 807.69 541.58
  Q 807.69 558.41 807.72 563.97
  A 0.62 0.62 0.0 0 1 807.11 564.59
  L 801.55 564.59
  A 0.56 0.56 0.0 0 1 800.99 564.04
  L 800.98 545.07
  A 0.34 0.34 0.0 0 0 800.64 544.72
  Q 800.02 544.72 788.24 544.72
  Q 776.47 544.72 775.85 544.73
  A 0.34 0.34 0.0 0 0 775.51 545.07
  L 775.51 564.04
  A 0.56 0.56 0.0 0 1 774.95 564.60
  L 769.39 564.60
  A 0.62 0.62 0.0 0 1 768.77 563.98
  Q 768.80 558.42 768.80 541.59
  Q 768.79 524.75 768.76 519.19
  A 0.62 0.62 0.0 0 1 769.38 518.57
  L 774.94 518.57
  A 0.56 0.56 0.0 0 1 775.50 519.13
  L 775.51 538.10
  A 0.34 0.34 0.0 0 0 775.85 538.44
  Q 776.47 538.44 788.24 538.44
  Z"
/>
<path fill="#000000" d="
  M 835.99 543.81
  C 831.42 538.53 824.16 529.83 823.94 529.76
  A 0.27 0.27 0.0 0 0 823.61 530.03
  L 823.66 564.08
  A 0.52 0.52 0.0 0 1 823.14 564.60
  L 817.74 564.60
  A 0.50 0.49 0.0 0 1 817.25 564.11
  L 817.25 519.10
  A 0.48 0.48 0.0 0 1 817.73 518.62
  L 822.15 518.70
  A 1.55 1.52 -19.8 0 1 823.24 519.20
  Q 823.77 519.70 840.92 539.49
  C 845.50 544.77 852.76 553.47 852.98 553.53
  A 0.27 0.27 0.0 0 0 853.30 553.27
  L 853.25 519.21
  A 0.52 0.52 0.0 0 1 853.77 518.70
  L 859.17 518.70
  A 0.50 0.49 0.0 0 1 859.67 519.18
  L 859.67 564.20
  A 0.48 0.48 0.0 0 1 859.18 564.68
  L 854.77 564.60
  A 1.55 1.52 -19.8 0 1 853.68 564.10
  Q 853.15 563.60 835.99 543.81
  Z"
/>
<path fill="#000000" d="
  M 950.79 558.86
  L 950.79 564.05
  A 0.55 0.55 0.0 0 1 950.24 564.60
  L 923.86 564.60
  A 0.55 0.55 0.0 0 1 923.31 564.05
  L 923.31 519.12
  A 0.55 0.55 0.0 0 1 923.86 518.57
  L 929.65 518.57
  A 0.55 0.55 0.0 0 1 930.20 519.12
  L 930.20 557.76
  A 0.55 0.55 0.0 0 0 930.75 558.31
  L 950.24 558.31
  A 0.55 0.55 0.0 0 1 950.79 558.86
  Z"
/>
<rect fill="#000000" x="1059.31" y="518.55" width="6.66" height="45.98" rx="0.52"/>
<path fill="#000000" d="
  M 1101.01 539.09
  L 1101.01 543.99
  A 0.60 0.60 0.0 0 1 1100.41 544.59
  L 1082.90 544.59
  A 0.60 0.60 0.0 0 0 1082.30 545.19
  L 1082.30 557.86
  A 0.60 0.60 0.0 0 0 1082.90 558.46
  L 1101.59 558.46
  A 0.60 0.60 0.0 0 1 1102.19 559.06
  L 1102.19 563.97
  A 0.60 0.60 0.0 0 1 1101.59 564.57
  L 1076.10 564.57
  A 0.60 0.60 0.0 0 1 1075.50 563.97
  L 1075.50 519.21
  A 0.60 0.60 0.0 0 1 1076.10 518.61
  L 1101.09 518.61
  A 0.60 0.60 0.0 0 1 1101.69 519.21
  L 1101.69 524.11
  A 0.60 0.60 0.0 0 1 1101.09 524.71
  L 1082.85 524.71
  A 0.60 0.60 0.0 0 0 1082.25 525.31
  L 1082.25 537.89
  A 0.60 0.60 0.0 0 0 1082.85 538.49
  L 1100.41 538.49
  A 0.60 0.60 0.0 0 1 1101.01 539.09
  Z"
/>
</svg>
